<svg xmlns="http://www.w3.org/2000/svg" viewBox="0 0 91.71 91.71">
  <path d="M90.43,46.34l-4.69-3.13a8.63,8.63,0,0,0-10.85,1.07l-12,12a8.58,8.58,0,0,0-8.49-7.52c-2.61,0-4.59.19-7.06-1.47-8.56-5.7-20-6.14-30.19,1.47V43a2.88,2.88,0,0,0-2.87-2.87H2.87A2.87,2.87,0,0,0,0,43V88.84a2.87,2.87,0,0,0,2.87,2.87H14.33a2.88,2.88,0,0,0,2.87-2.87v-33l4.31-3.23A20.1,20.1,0,0,1,44.21,52c3.87,2.59,7.14,2.43,10.24,2.43a2.88,2.88,0,0,1,2.87,2.87v2.86H37.26a2.87,2.87,0,1,0,0,5.73H60.18a2.89,2.89,0,0,0,2-.84L79,48.34A2.86,2.86,0,0,1,82.56,48l2.17,1.44L62.48,79.1a2.88,2.88,0,0,1-2.3,1.14H25.79a2.87,2.87,0,0,0,0,5.74H60.18a8.66,8.66,0,0,0,6.88-3.44l24.07-32.1a2.86,2.86,0,0,0-.7-4.1M11.46,86H5.73V45.85h5.73Z" style="fill: #0a5481"/>
  <path d="M65,6.52a2.86,2.86,0,0,0-3.94,0c-.45.43-1.31,1.26-2.34,2.34A83.34,83.34,0,0,0,50.57.68a2.86,2.86,0,0,0-3.71,0C45.29,2,31.52,14,31.52,22.93A17.19,17.19,0,0,0,56.28,38.35a14.27,14.27,0,0,0,21.1-12.56C77.38,18.6,67.08,8.47,65,6.52M37.26,22.93c0-4.24,6.4-11.56,11.44-16.22a75.57,75.57,0,0,1,6.2,6.5c-3.12,3.87-6.18,8.66-6.18,12.58a14.23,14.23,0,0,0,2.66,8.27A11.44,11.44,0,0,1,37.26,22.93M63.05,34.39a8.61,8.61,0,0,1-8.6-8.6c0-3,4.54-8.9,8.6-13.14,4.06,4.24,8.59,10.14,8.59,13.14a8.6,8.6,0,0,1-8.59,8.6" style="fill: #ed4f6b"/>
</svg>
