<svg id="ico-blog" xmlns="http://www.w3.org/2000/svg" viewBox="0 0 95.44 95.44">
  <path d="M92.46,53.69a3,3,0,0,0,3-3V9a9,9,0,0,0-9-8.95H9A9,9,0,0,0,0,9V68.6a9,9,0,0,0,9,9h23.6c-1,6.06-4.07,9.06-6.94,11.93H20.88a3,3,0,0,0,0,6H75.17a3,3,0,1,0,0-6H69.83c-3.12-3.13-6-6-6.94-11.93h23.6a9,9,0,0,0,9-9v-6a3,3,0,0,0-3-3H6V9A3,3,0,0,1,9,6H86.49a3,3,0,0,1,3,3V50.7a3,3,0,0,0,3,3M61.7,89.48h-28a24.28,24.28,0,0,0,4.79-11.93H56.91A24.38,24.38,0,0,0,61.7,89.48M89.48,65.62v3a3,3,0,0,1-3,3H9a3,3,0,0,1-3-3v-3Z" style="fill: #0a5481"/>
  <path d="M38.77,50.7H26.84a3,3,0,0,1-3-3v-6h-6a3,3,0,0,1-3-3V26.84a3,3,0,0,1,3-3h6v-6a3,3,0,0,1,3-3H38.77a3,3,0,0,1,3,3v6h6a3,3,0,0,1,3,3V38.77a3,3,0,0,1-3,3h-6v6a3,3,0,0,1-3,3m-8.94-6h6v-6a3,3,0,0,1,3-3h6v-6h-6a3,3,0,0,1-3-3v-6h-6v6a3,3,0,0,1-3,3h-6v6h6a3,3,0,0,1,3,3Z" style="fill: #735ca7"/>
  <path d="M77.55,23.86H59.65a3,3,0,1,1,0-6h17.9a3,3,0,1,1,0,6" style="fill: #0a5481"/>
  <path d="M77.55,35.79H59.65a3,3,0,0,1,0-6h17.9a3,3,0,1,1,0,6" style="fill: #0a5481"/>
  <path d="M68.6,47.72H59.65a3,3,0,1,1,0-6H68.6a3,3,0,0,1,0,6" style="fill: #0a5481"/>
</svg>
