<svg xmlns="http://www.w3.org/2000/svg" viewBox="0 0 74.69 94">
  <path d="M60.19,94H14.5A14.51,14.51,0,0,1,0,79.5v-65A14.52,14.52,0,0,1,14.5,0H60.19a14.52,14.52,0,0,1,14.5,14.5v65A14.52,14.52,0,0,1,60.19,94M14.5,5A9.51,9.51,0,0,0,5,14.5v65A9.51,9.51,0,0,0,14.5,89H60.19a9.51,9.51,0,0,0,9.5-9.5v-65A9.51,9.51,0,0,0,60.19,5Z" style="fill: #0a5481"/>
  <path d="M60.84,33.5H38a2.5,2.5,0,0,1,0-5H60.84a2.5,2.5,0,0,1,0,5" style="fill: #0a5481"/>
  <path d="M60.84,81.5H38a2.5,2.5,0,0,1,0-5H60.84a2.5,2.5,0,0,1,0,5" style="fill: #0a5481"/>
  <path d="M61,47.5H14a2.5,2.5,0,0,1,0-5H61a2.5,2.5,0,0,1,0,5" style="fill: #0a5481"/>
  <path d="M61.16,61.5h-47a2.5,2.5,0,1,1,0-5h47a2.5,2.5,0,0,1,0,5" style="fill: #0a5481"/>
  <path d="M20,38.5h-.14a2.51,2.51,0,0,1-1.88-1l-8-11a2.5,2.5,0,1,1,4-2.94l6.21,8.53L41.16,9.31a2.5,2.5,0,0,1,3.68,3.38l-23,25A2.49,2.49,0,0,1,20,38.5" style="fill: #3caa49"/>
</svg>
