<svg id="ico-revista" xmlns="http://www.w3.org/2000/svg" viewBox="0 0 80 80">
  <path d="M40,73.33H6.67V6.67H40V20a6.67,6.67,0,0,0,6.67,6.67H60V43.33h6.67V20l-20-20h-40A6.67,6.67,0,0,0,0,6.67V73.33A6.67,6.67,0,0,0,6.67,80H40Zm6.67-63.9L57.24,20H46.67Z" style="fill: #0a5481"/>
  <path d="M34.52,36.87l9.79,9.79-9.8,9.81L38,60,49,49a3.31,3.31,0,0,0,0-4.71l-11-11Z" style="fill: #735ca7"/>
  <path d="M73.33,66.67a6.66,6.66,0,0,0-4.74,2L60,65.07s0,0,0-.07,0,0,0-.07l8.6-3.58a6.67,6.67,0,1,0-1.92-4.68v.06l-8.6,3.59a6.67,6.67,0,1,0,0,9.36l8.6,3.59v.06a6.67,6.67,0,1,0,6.66-6.66" style="fill: #3caa49"/>
</svg>
