<svg xmlns="http://www.w3.org/2000/svg" viewBox="0 0 80.75 95.78">
  <path d="M40.38,95.78a6.44,6.44,0,0,1-4.11-1.46C27.77,87.42,0,63.13,0,40.38a40.38,40.38,0,0,1,80.75,0c0,22.78-27.77,47.06-36.27,54a6.46,6.46,0,0,1-4.1,1.45M40.1,89h0m.54,0h0m-.27-82A33.48,33.48,0,0,0,6.93,40.38c0,15.56,17.22,35.13,33.45,48.35,6.21-5.07,33.44-28.45,33.44-48.36A33.48,33.48,0,0,0,40.37,6.93" style="fill: #0a5481"/>
  <path d="M57.31,31.71h0L42.7,17.11a3.28,3.28,0,0,0-4.66,0L23.45,31.7v0a3.3,3.3,0,0,0,0,4.65,3.34,3.34,0,0,0,2.19,1h.68V48.08a3.86,3.86,0,0,0,3.86,3.85h5.71a1,1,0,0,0,1-1V42.46a1.76,1.76,0,0,1,1.76-1.76h3.37a1.76,1.76,0,0,1,1.76,1.76v8.43a1,1,0,0,0,1,1h5.71a3.86,3.86,0,0,0,3.86-3.85V37.33H55a3.3,3.3,0,0,0,2.34-5.62" style="fill: #09a7df"/>
</svg>
