<svg class="ico-exames" xmlns="http://www.w3.org/2000/svg" viewBox="0 0 86.63 86.61">
  <path d="M60.79,57a8.11,8.11,0,0,0-7.33-2.22l-8.1,1.62A8.07,8.07,0,0,0,39.7,60.7l-3,6A24.28,24.28,0,0,1,19.85,49.94l6-3a8.08,8.08,0,0,0,4.34-5.67l1.61-8.09a8.09,8.09,0,0,0-2.22-7.34l-9-9a8.12,8.12,0,0,0-12.27.9,43.29,43.29,0,0,0,13.3,63.1,2.7,2.7,0,1,0,2.71-4.68A37.88,37.88,0,0,1,12.74,20.94a2.71,2.71,0,0,1,4.09-.28l9,9a2.69,2.69,0,0,1,.74,2.44l-1.62,8.1a2.71,2.71,0,0,1-1.45,1.89l-8,4A2.72,2.72,0,0,0,14.07,49,29.7,29.7,0,0,0,37.61,72.54a2.71,2.71,0,0,0,2.94-1.45l4-8a2.66,2.66,0,0,1,1.89-1.44l8.09-1.62A2.72,2.72,0,0,1,57,60.8l9,9a2.71,2.71,0,0,1-.28,4.09,38,38,0,0,1-32.47,6,2.7,2.7,0,0,0-1.45,5.21,43.39,43.39,0,0,0,37.13-6.83A8.13,8.13,0,0,0,69.77,66Z" style="fill: #0a5481"/>
  <path d="M79.47,7.14C65.13-7.19,40.85,1.42,38.13,20.85c-1.49,10.7,4,12,.43,22.71L38,45.16a2.71,2.71,0,0,0,3.42,3.42c12-4,12.13.14,20.78.14,21.55,0,32.62-26.2,17.24-41.58m1.61,19.34a19,19,0,0,1-24.46,16,23.77,23.77,0,0,0-12-.42c2.22-10.57-2.26-11.95-1.08-20.44C45.6,6.52,64.49-.2,75.64,11a19,19,0,0,1,5.44,15.52" style="fill: #0a5481"/>
  <path d="M70.36,21.65H65V16.24a2.71,2.71,0,0,0-5.41,0v5.41H54.13a2.71,2.71,0,0,0,0,5.42h5.41v5.41a2.71,2.71,0,1,0,5.41,0V27.07h5.41a2.71,2.71,0,0,0,0-5.42" style="fill: #3caa49"/>
</svg>
